<?xml version="1.0" encoding="UTF-8" standalone="no" ?>
<!DOCTYPE svg PUBLIC "-//W3C//DTD SVG 1.1//EN" "http://www.w3.org/Graphics/SVG/1.1/DTD/svg11.dtd">
<svg xmlns="http://www.w3.org/2000/svg" xmlns:xlink="http://www.w3.org/1999/xlink" version="1.1" width="203.9745999999999" height="230.73399999999998" xml:space="preserve">
<desc>Created with Fabric.js 1.6.0-rc.1</desc>
<defs></defs>
  <g transform="translate(10.5 168.8)">
   <text font-family="ADAMCG PRO" font-size="40" font-weight="normal" style="stroke: none; stroke-width: 1; stroke-dasharray: none; stroke-linecap: butt; stroke-linejoin: miter; stroke-miterlimit: 10; fill: #000000; fill-rule: nonzero; opacity: 1;" ><tspan x="0" y="-17.23" fill="#000000"></tspan><tspan x="0" y="35.2" fill="#000000"></tspan></text>
 </g>
<g style="stroke: none; stroke-width: 1; stroke-dasharray: none; stroke-linecap: butt; stroke-linejoin: miter; stroke-miterlimit: 10; fill: none; fill-rule: nonzero; opacity: 1;" transform="translate(75.9799999999999 10.000000000000007) scale(0.23 0.23)" >
  <path d="M 291.02 210.881 c -2.628 -7.326 -9.393 -9.597 -16.275 -6.622 c -1.08 0.467 -2.404 1.473 -3.188 2.367 c -0.192 0.219 -0.276 0.329 -0.309 0.387 c -2.067 1.581 -3.552 3.696 -5.078 5.818 c -0.114 0.158 -0.21 0.322 -0.318 0.482 c -3.064 1.374 -6.177 2.634 -9.175 4.212 c -4.702 2.475 -9.121 5.55 -13.49 8.592 c -1.398 0.097 -3.092 0.26 -3.501 0.345 c -1.807 0.376 -3.287 1.044 -5.21 1.159 c -3.58 0.215 -7.18 -0.006 -10.768 0.227 c -6.418 0.416 -15.615 -1.673 -20.935 -5.474 c -2.728 -1.949 -5.006 -4.435 -7.796 -6.409 c -3.098 -2.191 -5.202 -3.873 -7.789 -6.716 c -4.862 -5.344 -8.512 -11.176 -14.13 -15.855 c -10.764 -8.966 -24.811 -19.867 -39.054 -24.376 c -7.758 -2.456 -15.508 -2.875 -22.815 -1.466 c -6.742 0.244 -13.041 0.96 -19.484 3.556 c -6.401 2.579 -13.161 5.756 -19.765 8.526 c -14.625 6.134 -27.155 15.299 -36.476 28.385 c -4.111 5.772 -7.446 12.076 -10.842 18.297 c -1.295 1.753 -2.594 3.501 -3.777 5.332 c -8.242 12.757 -13.934 28.677 -14.889 43.201 c -1.149 17.456 -0.335 35.479 4.668 52.334 c 1.075 3.62 2.739 7.188 4.566 10.474 c 1.779 3.199 2.802 6.405 4.613 9.896 c 3.778 7.283 6.905 14.983 10.82 22.143 c 4.258 7.787 9.556 14.353 15.745 21.966 c 3.204 3.942 6.619 6.664 10.558 9.887 c 2.032 1.663 3.508 3.175 5.96 4.166 c 1.338 2.628 3.098 4.856 4.979 5.729 c 1.813 0.841 3.531 0.778 4.914 0.15 c 1.886 0.078 3.728 -0.626 5.271 -1.688 c 4.138 -2.849 7.731 -6.234 12.087 -8.748 c 1.749 -1.009 3.325 -2.013 4.868 -2.881 c 2.882 0.182 6.187 0.034 9.159 -0.702 c 3.382 0.625 6.91 0.637 10.213 -0.093 c 2.447 0.785 5.267 -0.069 7.13 -1.758 c 1.035 -0.937 1.722 -2.088 2.474 -3.19 c 0.233 -0.246 0.425 -0.521 0.586 -0.815 c 0.194 -0.253 0.394 -0.502 0.612 -0.738 c 2.088 -2.26 5.048 -3.665 7.167 -5.976 c 2.257 -2.462 4.922 -5.132 6.688 -8.142 c 1.042 -0.494 2.085 -0.981 3.132 -1.447 c 6.68 -2.97 12.574 -4.579 19.969 -4.403 c 5.86 0.138 11.878 0.088 17.617 1.395 c 1.258 0.287 2.792 0.167 3.967 0.475 c 1.411 0.37 2.753 1.511 4.213 1.949 c 3.961 1.188 7.841 2.067 11.691 0.137 c 3.469 -1.74 4.248 -5.076 3.397 -8.143 c 3.5 -1.408 6.333 -4.807 9.606 -6.67 c 4.409 -2.508 8.754 -5.389 12.983 -8.268 c 4.44 -3.023 9.697 -5.41 14.761 -7.23 c 2.609 -0.937 5.259 -1.891 7.98 -2.413 c 1.663 -0.32 3.338 -0.331 4.927 -0.987 c 0.3 -0.124 2.748 -1.017 1.417 -0.854 c 3.229 -0.397 5.609 -2.189 6.722 -4.531 c 5.334 -4.855 6.991 -13.614 9.213 -19.976 c 1.664 -4.765 -2.781 -10.743 -7.875 -10.339 c -5.471 0.434 -11.772 3.373 -16.704 5.785 c -0.745 0.365 -1.481 0.738 -2.219 1.108 c -4.971 -0.294 -10.667 1.379 -14.954 2.964 c -7.063 2.613 -13.329 6.978 -19.399 11.342 c -3.808 2.738 -7.773 5.456 -11.463 8.447 c -2.396 -0.072 -3.926 1.139 -6.028 1.987 c -1.631 0.658 -3.474 1.005 -5.267 1.29 c -3.929 0.623 -8.279 1.021 -12.436 1.056 c -1.375 -1.097 -2.909 -2.045 -4.353 -2.872 c -4.029 -2.308 -8.212 -4.29 -12.197 -6.681 c -3.925 -2.355 -8.333 -4.418 -11.502 -7.589 c -1.307 -1.308 -2.538 -2.667 -3.798 -3.945 c -2.296 -6.536 -2.569 -13.872 -1.08 -20.556 c 0.954 -4.284 2.503 -8.814 4.223 -12.854 c 0.931 -2.187 2.071 -4.275 3.036 -6.446 c 0.087 -0.195 0.285 -0.562 0.514 -0.994 c 1.114 -1.347 2.098 -2.824 2.911 -4.351 c 0.692 -0.764 1.35 -1.52 1.887 -2.243 c 0.966 -1.298 2.01 -2.574 3.143 -3.767 c 1.391 -1.331 2.825 -2.612 4.384 -3.714 c 0.934 -0.659 1.667 -1.412 2.237 -2.216 c 1.904 -0.547 3.911 -0.872 6.072 -0.87 c 3.424 0.004 8.226 1.016 11.627 1.694 c 4.855 0.966 9.561 2.541 14.389 3.568 c 5.478 1.166 10.723 1.721 16.284 2.235 c 6.147 0.568 11.08 0.463 17.223 -0.317 c 8.011 -1.016 19.023 -3.97 25.149 -10.531 c 1.394 -0.269 2.794 -0.625 4.246 -1.169 c 2.786 -1.045 5.084 -2.692 7.355 -4.461 c 3.173 -1.635 6.065 -4.345 8.347 -6.503 c 2.099 -1.985 4.232 -3.925 6.073 -6.157 c 0.64 -0.775 1.349 -1.895 2.058 -3.043 c 1.643 -2.052 3.171 -4.144 4.498 -6.231 c 1.679 -2.642 1.793 -5.183 0.941 -7.302 C 290.991 219.436 292.661 215.454 291.02 210.881 z M 287.871 222.026 c -0.013 -0.03 -0.025 -0.063 -0.038 -0.093 c 0.102 -0.149 0.207 -0.294 0.297 -0.45 C 288.953 220.065 289.571 220.585 287.871 222.026 z" style="stroke: none; stroke-width: 1; stroke-dasharray: none; stroke-linecap: butt; stroke-linejoin: miter; stroke-miterlimit: 10; fill: #0076C0; fill-rule: nonzero; opacity: 1;" transform=" matrix(1 0 0 1 0 0) " stroke-linecap="round" />
  <path d="M 280.228 201.988 c -6.687 -1.745 -11.375 5.267 -15.681 8.577 c -5.35 4.114 -10.739 9.229 -16.628 12.554 c -5.748 3.245 -13.885 3.906 -20.35 4.231 c -1.381 0.07 -2.79 0.192 -4.159 0.37 c -0.006 0.001 -0.81 0.062 -1.355 0.123 c -0.55 -0.069 -1.362 -0.142 -1.354 -0.142 c -4.054 -0.279 -7.658 -0.162 -11.556 -1.615 c -3.198 -1.192 -6.367 -2.158 -9.187 -4.086 c -2.724 -1.861 -5.504 -3.424 -8.487 -4.847 c -0.207 -0.099 -0.396 -0.201 -0.595 -0.303 c -2.911 -3.282 -6.263 -6.344 -7.672 -8.706 c -2.537 -4.249 -6.865 -12.362 -12.567 -14.963 c -1.054 -0.871 -2.206 -1.698 -3.261 -2.579 c -4.432 -3.696 -9.209 -6.65 -14.579 -8.665 c -4.073 -1.528 -17.979 -6.215 -23.103 -2.345 c -0.071 0.004 -0.14 0.002 -0.212 0.012 c -7.898 1.195 -6.816 8.967 -0.339 11.573 c 4.325 1.741 8.651 2.319 12.772 4.744 c 0.73 0.43 1.412 0.823 2.025 1.248 c -0.318 1.353 -0.63 2.774 -0.871 4.21 c -1.861 1.182 -3.271 1.427 -4.967 1.289 c -0.966 -0.513 -1.981 -0.933 -3.037 -1.224 c -2.103 -0.659 -4.207 -0.754 -6.311 -0.282 c -0.273 0.012 -0.539 0.059 -0.807 0.089 c -4.37 -0.399 -8.734 -0.492 -13.136 -0.54 c -5.326 -0.059 -11.206 1.062 -16.153 3.062 c -0.186 0.075 -0.388 0.168 -0.583 0.252 c -0.142 -0.089 -0.294 -0.162 -0.461 -0.209 c -0.99 -0.138 -1.932 -0.11 -2.851 0.264 c -1.915 0.784 -3.87 2.629 -5.502 3.902 c -3.474 2.71 -4.814 5.3 -3.752 9.756 c 1.056 4.426 3.704 6.148 8.218 6.396 c 2.091 0.116 4.638 0.235 7.165 0.055 c 3.769 1.176 7.597 1.129 9.455 5.693 c 0.264 0.649 0.362 0.923 0.158 0.075 c 0.119 0.491 0.393 1.512 0.297 1.976 c -0.308 1.493 -2.148 3.309 -3.348 4.087 c -2.095 1.359 -4.708 2.088 -6.731 3.574 c -3.318 -2.349 -8.356 2.266 -10.407 4.49 c -0.727 0.789 -1.463 1.618 -2.157 2.481 c -0.29 0.245 -0.584 0.49 -0.856 0.748 c -2.359 2.238 -4.669 6.103 -4.635 9.61 c -1.036 2.811 -1.242 5.557 0.629 7.275 c 0.46 0.423 0.978 0.551 1.512 0.491 c 0.693 0.278 1.569 0.154 2.142 -0.636 c 1.535 -2.116 3.536 -3.745 5.633 -5.267 c 4.53 -0.869 7.843 -5.162 12.074 -6.903 c 6.56 -2.699 13.321 -4.719 20.462 -5.179 c 7.35 -0.474 14.287 -0.583 21.645 -0.043 c 3.381 0.248 6.742 0.905 10.017 1.769 c 1.488 0.393 2.885 0.89 4.318 1.42 c 0.765 0.282 3.107 0.984 3.706 1.151 c 0.109 0.098 2.831 1.286 3.559 1.602 c 1.234 0.537 2.432 0.987 3.705 1.408 c 0.984 0.325 1.975 0.658 2.953 0.993 c 0.704 0.241 4.558 1.767 2.666 1.088 c 6.527 2.344 12.673 5.365 19.067 7.944 c 12.034 4.855 26.265 5.711 38.786 2.194 c 3.25 -0.913 6.674 -2.067 10.012 -3.486 c 3.188 -0.713 6.273 -2.125 9.275 -3.641 c 5.79 -2.923 11.076 -6.083 15.655 -10.708 c 6.2 -6.263 11.252 -13.045 14.222 -20.995 c 1.496 -2.81 2.703 -5.751 3.285 -8.952 C 289.066 212.536 286.949 203.742 280.228 201.988 z" style="stroke: none; stroke-width: 1; stroke-dasharray: none; stroke-linecap: butt; stroke-linejoin: miter; stroke-miterlimit: 10; fill: #73CEE5; fill-rule: nonzero; opacity: 1;" transform=" matrix(1 0 0 1 0 0) " stroke-linecap="round" />
  <path d="M 497.477 412.43 c -5.628 -5.002 -14.323 -9.125 -21.947 -7.643 c -0.125 0.015 -0.219 0.026 -0.327 0.038 c 2.127 -10.442 0.402 -21.436 -9.047 -27.052 c -2.238 -1.33 -5.302 -1.903 -8.478 -1.832 c -0.086 -0.042 -0.174 -0.078 -0.261 -0.117 c -2.341 -3.68 -6.485 -4.751 -10.618 -4.095 c -6.704 1.065 -11.067 10.754 -13.846 16.203 c -1.81 3.548 -4.248 8.128 -5.205 12.65 c -0.903 1.514 -1.731 3.049 -2.386 4.569 c -0.631 -0.32 -1.29 -0.621 -1.981 -0.903 c -8.863 -3.6 -17.293 -5.063 -26.592 -2.118 c -4.479 1.419 -8.697 3.094 -12.588 5.742 c -1.651 1.123 -3.221 2.289 -4.807 3.457 c -1.289 0.825 -2.521 1.727 -3.697 2.706 c -0.919 0.763 -0.981 0.907 -0.187 0.433 c -1.309 1.103 -2.431 2.179 -3.37 3.288 c -0.537 -0.5 -1.086 -0.989 -1.647 -1.464 c -1.237 -1.564 -2.793 -2.701 -4.49 -3.69 c -0.788 -0.67 -1.557 -1.357 -2.288 -2.085 c -3.089 -3.085 -5.623 -6.044 -9.926 -7.44 c -6.954 -2.255 -16.619 -1.249 -23.511 0.816 c -3.302 0.989 -6.466 2.523 -9.08 4.626 c -1.402 0.827 -2.754 1.723 -4.025 2.696 c -0.385 0.164 -0.782 0.324 -1.158 0.492 c -3.599 1.601 -7.945 3.71 -11.104 6.669 c -0.827 -3.818 -2.648 -7.481 -5.437 -10.776 c -2.538 -2.997 -5.77 -5.909 -9.078 -8.032 c -1.137 -0.901 -2.404 -1.56 -3.801 -1.978 c 1.32 0.473 1.256 0.298 -0.191 -0.524 c -1.266 -1.049 -3.005 -2.049 -4.411 -2.917 c -3.532 -2.178 -8.367 -4.105 -12.338 -5.356 c -3.659 -1.152 -7.31 -0.68 -11.058 -1.048 c -1.846 -0.181 -3.633 -0.078 -5.38 0.226 c -0.107 -0.559 -0.23 -1.062 -0.378 -1.443 c -0.402 -1.029 -1.035 -1.967 -1.819 -2.773 c 0.167 -2.232 0.375 -4.462 0.766 -6.664 c 0.266 -1.496 0.093 -2.986 -0.39 -4.355 c 1.599 -4.457 2.902 -9.062 3.636 -13.56 c 0.021 -0.074 0.048 -0.146 0.069 -0.221 c -0.011 -0.001 -0.024 -0.003 -0.035 -0.005 c 0.098 -0.618 0.201 -1.237 0.281 -1.85 c 0.499 -0.815 0.855 -1.718 1.092 -2.706 c 4.032 -3.447 1.838 -9.597 -3.526 -10.145 c -1.587 -0.162 -3.221 -0.055 -4.872 0.224 c -7.247 -1.021 -14.962 2.027 -21.398 4.86 c -6.833 3.008 -14.119 7.347 -16.722 14.698 c -4.462 4.679 -7.96 10.425 -10.923 16.071 c -0.008 0.015 -0.017 0.032 -0.025 0.046 c -0.218 -0.092 -0.438 -0.185 -0.656 -0.277 c -0.123 -0.091 -0.271 -0.199 -0.443 -0.323 c -1.496 -1.008 -3.038 -1.631 -4.752 -2.255 c -4.485 -1.633 -9.677 -2.056 -14.289 -2.61 c -7.705 -0.926 -17.894 -0.665 -25.051 -0.251 c -5.516 0.32 -10.713 0.547 -15.696 3.467 c -4.581 2.684 -7.958 7.118 -10.853 11.462 c -2.351 3.529 -4.984 7.747 -7.147 12.246 c -8.351 -2.822 -17.561 -2.794 -26.332 0.111 c -6.139 2.034 -11.587 6.894 -15.382 11.964 c -1.874 2.502 -2.887 5.406 -4.264 8.149 c -0.873 1.739 -1.52 3.315 -1.984 4.956 c -0.125 0.008 -0.248 0.006 -0.374 0.016 c -4.437 0.384 -9.336 1.569 -13.7 2.538 c -0.833 0.185 -1.763 0.416 -2.746 0.69 c -4.04 1.071 -8.116 2.623 -11.865 4.074 c -4.941 1.912 -10.784 4.133 -15.226 7.095 c -6.897 2.941 -3.257 14.264 4.752 12.581 c 0.414 -0.087 0.823 -0.196 1.235 -0.293 c 4.868 5.64 14.69 5.457 21.489 5.518 c 4.252 0.037 8.484 -0.631 12.715 -0.71 c 4.614 -0.086 9.236 0.694 13.844 0.819 c 9.769 0.267 19.655 -0.714 29.466 -0.655 c 10.379 0.062 20.732 0.384 31.111 0.425 c 19.593 0.079 39.473 0.077 59.008 -1.352 c 6.101 -0.446 12.22 -0.874 18.349 -1.237 c 1.213 0.778 2.462 1.515 3.871 1.954 c 3.354 1.047 6.752 1.612 10.19 2.289 c 6.649 1.31 13.287 1.346 19.949 2.162 c 15.49 1.896 31.799 0.801 47.334 -0.35 c 7.715 -0.572 15.465 -1.938 23.188 -2.148 c 8.104 -0.221 16.176 -0.521 24.275 -0.953 c 8.301 -0.443 16.594 -0.133 24.903 -0.477 c 2.203 -0.091 4.406 -0.218 6.608 -0.358 c 4.182 0.896 8.588 1.447 12.77 1.729 c 9.229 0.622 18.622 0.254 27.878 0.576 c 9.158 0.318 18.16 1.014 27.35 0.634 c 4.086 -0.169 9.246 -0.726 13.982 -2.156 c 13.438 2.214 31.25 7.951 39.879 -5.733 C 510.789 440.097 508.782 422.477 497.477 412.43 z" style="stroke: none; stroke-width: 1; stroke-dasharray: none; stroke-linecap: butt; stroke-linejoin: miter; stroke-miterlimit: 10; fill: #FCBC7E; fill-rule: nonzero; opacity: 1;" transform=" matrix(1 0 0 1 0 0) " stroke-linecap="round" />
  <path d="M 277.994 124.017 c 0.053 -2.862 0.071 -5.724 -0.02 -8.584 c -0.196 -6.134 -0.593 -12.171 0.018 -18.213 c -0.811 -0.437 -1.509 -1.122 -1.991 -2.101 c -0.831 -1.688 -1.742 -3.315 -2.699 -4.916 c -1.328 -1.697 -2.494 -3.521 -3.491 -5.494 c -0.341 -0.674 -0.541 -1.332 -0.637 -1.968 c -1.505 -0.757 -3.053 -1.465 -4.631 -2.203 c -6.323 -2.963 -12.438 -3.081 -19.152 -1.924 c -6.604 1.138 -12.593 1.646 -17.797 6.419 c -2.748 2.52 -4.845 5.765 -6.314 9.345 c -2.389 3.339 -4.029 7.165 -5.162 11.172 c -1.518 5.365 -2.901 12.365 -1.75 17.799 c 2.493 11.767 14.156 20.99 25.63 23.29 c 8.979 1.799 20.394 0.91 28.714 -4.094 C 271.095 136.014 273.606 129.6 277.994 124.017 z" style="stroke: none; stroke-width: 1; stroke-dasharray: none; stroke-linecap: butt; stroke-linejoin: miter; stroke-miterlimit: 10; fill: #FFC94E; fill-rule: nonzero; opacity: 1;" transform=" matrix(1 0 0 1 0 0) " stroke-linecap="round" />
  <path d="M 482.284 169.16 c -1.296 -12.58 -6.202 -23.707 -10.632 -35.428 c -1.181 -3.124 -2.063 -6.086 -3.861 -8.962 c -1.783 -2.851 -3.742 -5.47 -5.265 -8.474 c -0.447 -0.881 -0.915 -1.869 -1.42 -2.884 c 0.97 -2.407 0.838 -5.282 -0.259 -7.58 c 0.01 0.006 0.019 0.011 0.029 0.017 c -0.063 -0.147 -0.164 -0.288 -0.246 -0.431 c -0.057 -0.104 -0.115 -0.207 -0.176 -0.308 c -0.037 -0.056 -0.066 -0.114 -0.107 -0.169 c -1.335 -2.094 -3.579 -3.493 -6.601 -3.18 c -8.443 0.872 -15.576 4.587 -22.023 9.481 c -3.064 1.007 -6.033 2.72 -8.566 4.554 c -0.64 0.464 -1.29 0.949 -1.937 1.454 c -2.412 0.414 -4.834 1.411 -7.274 2.183 c -4.744 1.502 -9.236 3.401 -13.625 5.754 c -9.228 4.947 -17.451 11.392 -25.539 17.992 c -7.733 6.31 -14.542 13.278 -20.838 20.983 c -4.715 5.771 -9.056 11.879 -11.348 18.857 c -2.014 2.183 -3.948 4.441 -5.78 6.781 c -5.022 6.413 -10.023 13.154 -13.795 20.421 c -1.072 1.622 -2.1 3.267 -3.047 4.94 c -1.231 2.175 -2.311 4.381 -3.421 6.572 c -4.463 4.683 -8.348 10.16 -11.984 15.299 c -5.309 7.506 -10.063 15.259 -13.341 23.881 c -1.458 3.835 -2.878 8.401 -3.599 12.999 c -0.232 0.349 -0.463 0.697 -0.698 1.048 c -6.272 9.348 -11.347 18.94 -15.077 29.594 c -3.484 9.948 -6.496 20.446 -8.029 31.075 c -2.866 4.788 -5.118 10.027 -6.834 15.013 c -2.524 7.337 -4.684 16.423 -3.216 24.4 c -1.18 1.385 -1.931 3.235 -1.825 4.948 c 0.006 0.096 0.011 0.192 0.018 0.288 h 0.062 c 0.002 0.321 0.019 0.643 0.069 0.966 c 0.572 3.799 3.433 5.913 7.131 6.296 c 1.129 0.117 1.984 -0.158 2.871 -0.509 c 0.27 0.055 0.539 0.11 0.809 0.165 c 1.224 0.339 2.432 0.68 3.711 0.749 c 1.361 0.074 2.968 -0.161 4.472 -0.69 c 1.033 0.607 2.012 1.237 2.905 1.792 c 3.595 2.233 7.075 3.943 10.46 6.489 c 3.714 2.792 6.2 5.524 8.529 9.607 c 2.189 3.836 3.853 7.517 8.469 8.753 c 2.504 0.671 5.361 -0.181 7.147 -2.044 c 2.977 -0.269 5.949 -1.601 8.652 -2.642 c 3.616 -1.393 6.894 -3.107 10.599 -4.5 c 3.283 -1.234 6.121 -1.275 9.568 -1.433 c 4.087 -0.187 8.4 -0.477 12.493 0.11 c 5.875 0.844 8.691 4.68 12.625 8.69 c 4.273 4.355 12.572 5.426 15.921 1.133 c 5.439 -2.359 9.504 -7.179 15.17 -9.591 c 4.632 -1.972 10.484 -3.193 14.769 -6.249 c 0.333 0.045 0.668 0.09 1.008 0.135 c 1.983 0.268 3.972 0.28 5.965 0.447 c 0.198 0.017 0.396 0.041 0.594 0.059 c 0.059 0.197 0.116 0.395 0.19 0.592 c 1.678 4.414 7.399 5.536 10.093 1.319 c 1.231 -1.925 1.372 -3.875 1.07 -5.973 c 5.938 -4.156 9.322 -12.495 11.892 -18.721 c 2.237 -5.42 4.207 -11.039 5.919 -16.644 c 0.681 -2.23 1.142 -4.668 1.648 -7.099 c 2.649 -3.929 4.63 -8.518 6.209 -12.119 c 3.854 -8.788 6.434 -18.464 8.845 -27.74 c 2.16 -8.306 3.726 -16.71 5.085 -25.167 c 1.709 -6.17 3.333 -12.353 5 -18.551 c 2.39 -8.889 4.902 -18.067 6.443 -27.141 c 0.829 -4.886 2.2 -12.018 -0.097 -17 c 0.526 -3.596 0.982 -7.204 1.618 -10.765 C 482.429 198.684 483.781 183.693 482.284 169.16 z" style="stroke: none; stroke-width: 1; stroke-dasharray: none; stroke-linecap: butt; stroke-linejoin: miter; stroke-miterlimit: 10; fill: #C8497A; fill-rule: nonzero; opacity: 1;" transform=" matrix(1 0 0 1 0 0) " stroke-linecap="round" />
  <path d="M 385.51 280.508 C 385.583 280.549 385.5 280.498 385.51 280.508 L 385.51 280.508 z" style="stroke: none; stroke-width: 1; stroke-dasharray: none; stroke-linecap: butt; stroke-linejoin: miter; stroke-miterlimit: 10; fill: #8490C8; fill-rule: nonzero; opacity: 1;" transform=" matrix(1 0 0 1 0 0) " stroke-linecap="round" />
  <path d="M 476.67 209.385 c 1.365 -4.11 1.437 -8.816 1.819 -12.975 c 0.483 -5.266 0.692 -10.308 0.261 -15.566 c -0.511 -6.236 0.129 -12.633 -0.674 -18.819 c -0.226 -1.742 -0.603 -3.745 -1.392 -5.447 c 0.261 -0.251 0.515 -0.511 0.757 -0.789 c 1.005 -1.151 1.005 -2.633 0 -3.792 c -4.703 -5.424 -12.287 -1.023 -16.745 2.313 c -2.306 1.724 -4.758 3.827 -6.399 6.336 c -2.066 1.449 -3.967 2.995 -5.591 4.442 c -2.693 2.402 -4.707 4.998 -6.386 8.188 c -1.631 3.098 -3.898 6.458 -4.404 9.982 c -0.174 1.215 0.097 2.331 0.623 3.26 c -0.345 0.601 -0.64 1.224 -0.909 1.861 c -2.938 5.639 -5.718 11.439 -7.59 17.415 c -0.454 1.447 -1.07 3.117 -1.652 4.886 c -3.109 4.093 -5.539 10.962 -6.587 12.516 c -5.307 7.864 -11.746 15.059 -19.32 20.75 c -3.773 2.835 -8.914 5.548 -13.997 6.805 c -1.569 -0.187 -3.092 0.027 -4.46 0.691 c -0.729 0.041 -1.451 0.052 -2.155 0.007 c -4.155 -0.263 -7.269 -1.521 -10.963 -2.826 c -1.653 -2.358 -3.316 -4.561 -5.252 -6.784 c -0.396 -0.455 -0.82 -0.724 -1.247 -0.868 c -0.325 -0.668 -0.663 -1.334 -1.026 -1.986 c -0.822 -2.92 -1.435 -6.367 -3.589 -8.522 c -2.821 -2.821 -6.647 -2.7 -9.828 -1.061 c -2.815 -0.182 -5.66 0.473 -8.45 1.916 c -5.423 2.807 -9.84 7.055 -14.864 10.363 c -3.073 2.023 -8.259 4.463 -10.662 7.89 c -2.547 1.978 -4.93 4.189 -7.229 6.399 c -3.933 3.78 -7.343 8.097 -10.691 12.39 c -0.791 1.014 -1.74 2.155 -2.477 3.374 c -2.637 2.658 -5.048 5.451 -7.244 8.478 c -2.469 1.361 -3.788 5.192 -5.062 7.365 c -1.03 1.756 -2.048 3.581 -3.006 5.375 c -0.472 0.883 -0.794 1.762 -0.685 2.65 c -1.234 1.601 -2.439 3.259 -3.175 4.995 c -0.197 0.466 -0.299 0.995 -0.315 1.528 c -2.094 2.774 -4.297 5.698 -5.942 8.662 c -2.36 4.249 2.516 9.748 6.916 6.916 c 2.677 -1.722 4.849 -4.845 6.642 -8.02 c 1.636 -1.991 3.246 -4.015 4.56 -6.179 c 1.46 -1.185 2.937 -2.345 4.423 -3.485 c 0.288 0.107 0.594 0.18 0.916 0.2 c 0.06 0.003 0.119 0.008 0.179 0.011 c 0.945 0.057 1.642 -0.281 2.095 -0.82 c 8.89 -4.527 17.768 -9.143 26.501 -13.937 c 3.782 -2.076 8.041 -3.586 12.221 -4.88 c 4.03 -1.246 8.564 -0.416 12.723 -0.109 c 4.09 0.303 9.373 -0.261 12.734 0.391 c 5.016 0.973 10.519 3.522 14.874 6.126 c 3.092 1.849 4.374 2.694 8.007 5.159 c 1.483 1.006 3.076 2.049 4.728 2.822 c 0.44 0.556 0.981 1.06 1.623 1.487 c 10.593 7.06 25.515 7.652 37.082 3.53 c 5.342 -1.903 11.144 -4.409 14.345 -9.322 c 0.589 -0.233 1.151 -0.568 1.655 -1.017 c 2.866 -2.561 3.763 -6.55 5.061 -10.032 c 1.438 -3.857 2.882 -7.895 3.702 -11.937 c 0.744 -3.664 1.571 -8.197 1.694 -12.661 c 1.069 -3.635 2.187 -7.251 3.467 -10.792 c 1.204 -3.329 3.379 -6.938 4.667 -10.629 c 2.198 -2.445 4.427 -4.858 6.634 -7.274 c 1.527 -0.677 2.998 -1.466 4.348 -2.432 c 2.738 -1.958 6.493 -4.522 8.079 -7.592 C 481.62 213.259 479.865 209.976 476.67 209.385 z" style="stroke: none; stroke-width: 1; stroke-dasharray: none; stroke-linecap: butt; stroke-linejoin: miter; stroke-miterlimit: 10; fill: #7C2B42; fill-rule: nonzero; opacity: 1;" transform=" matrix(1 0 0 1 0 0) " stroke-linecap="round" />
  <path d="M 374.257 322.454 c -0.127 -0.909 -0.602 -1.73 -1.242 -2.43 c -0.402 -1.418 -1.4 -2.664 -2.941 -2.932 c -4.036 -0.701 -7.252 1.738 -9.849 5.143 c -4.346 3.638 -7.872 8.801 -11.215 12.774 c -4.731 5.62 -10.785 11.512 -13.717 18.252 c -1.711 3.932 -3.647 7.819 -5.188 11.821 c -1.358 3.528 -1.796 7.257 -3.121 10.817 c -0.697 1.87 -1.232 3.959 -1.66 6.074 c -3.097 6.403 -6.854 14.733 -5.222 21.05 c 0.048 0.585 0.257 1.156 0.571 1.663 c 0 0.001 0.001 0.003 0.001 0.005 v -0.002 c 0.304 0.491 0.699 0.925 1.173 1.228 l 0.149 0.096 c 1.69 1.083 4.047 0.331 5.039 -1.321 c 1.216 -2.023 2.257 -4.145 3.211 -6.314 c 0.424 0.134 0.871 0.207 1.316 0.217 c 0.126 0.255 0.252 0.51 0.402 0.753 c 1.786 2.884 5.7 4.106 8.706 2.282 c 0.792 -0.481 1.492 -1.062 2.131 -1.708 c 1.093 0.699 2.359 0.919 3.601 0.775 c 1.285 1.12 3.086 1.58 4.896 1.452 c 3.595 1.874 8.729 0.872 9.884 -4.025 c 2.91 -12.351 5.205 -24.917 7.946 -37.35 c 1.381 -6.258 2.219 -12.599 3.14 -18.935 C 373.201 335.411 375.162 328.931 374.257 322.454 z" style="stroke: none; stroke-width: 1; stroke-dasharray: none; stroke-linecap: butt; stroke-linejoin: miter; stroke-miterlimit: 10; fill: #7C2B42; fill-rule: nonzero; opacity: 1;" transform=" matrix(1 0 0 1 0 0) " stroke-linecap="round" />
  <path d="M 511.831 429.453 c -0.976 -11.797 -7.448 -25.523 -19.761 -28.396 c -3.889 -0.907 -7.874 -1.328 -11.82 -1.059 c 0.6 -8.593 -4.194 -17.827 -10.803 -22.91 c -3.872 -2.979 -8.213 -6.133 -12.904 -7.667 c -2.533 -0.828 -5.21 -1.137 -7.861 -0.916 c 3.809 -7.864 6.858 -15.987 9.847 -24.302 c 8.279 -23.033 15.034 -46.639 20.839 -70.418 c 2.758 -11.294 4.367 -23.124 5.505 -34.691 c 0.564 -5.722 1.365 -11.16 1.237 -16.924 c -0.142 -6.404 -0.042 -12.822 -0.043 -19.228 c -0.003 -12.082 0.36 -24.607 -1.946 -36.524 c -1.089 -5.63 -1.599 -11.328 -2.732 -16.95 c -1.098 -5.449 -2.669 -10.612 -4.009 -16 c -1.209 -4.863 -2.806 -9.832 -4.6 -14.515 c -0.901 -2.353 -2.236 -4.415 -3.51 -6.572 c -1.452 -2.458 -1.966 -5.15 -3.321 -7.626 c -1.993 -3.644 -4.244 -7.642 -7.831 -9.964 c -4.885 -3.162 -9.424 -0.374 -13.94 2.028 c -2.612 1.39 -5.415 2.201 -8.045 3.52 c -2.452 1.229 -4.696 2.74 -7.201 3.908 c -5.383 2.507 -10.632 5.434 -15.521 8.814 c -8.997 6.222 -17.962 12.527 -27.093 18.609 c -10.189 6.786 -19.406 14.861 -28.044 23.506 c -3.731 3.734 -7.641 7.383 -11.238 11.226 c -1.685 1.801 -2.741 4.061 -4.361 5.922 c -2.438 2.801 -4.836 5.632 -7.226 8.475 c -7.774 9.245 -14.962 18.884 -21.215 29.234 c -5.969 9.878 -12.374 19.539 -17.618 29.831 c -3.158 6.196 -5.539 12.761 -8.77 18.899 c -2.999 5.698 -5.79 11.506 -8.396 17.389 c -2.526 5.701 -4.616 11.679 -6.462 17.639 c -0.756 2.443 -1.637 4.856 -2.568 7.255 c -0.245 -0.064 -0.492 -0.127 -0.761 -0.159 c -4.514 -0.523 -8.979 -0.877 -13.518 -0.398 c -4.41 0.465 -8.026 2.317 -12.092 3.921 c -8.066 3.181 -15.807 6.257 -23.6 10.099 c -7.929 3.909 -14.696 9.867 -22.473 14.139 c -8.303 4.561 -17.864 5.229 -26.921 3.11 c -8.647 -2.022 -14.968 -6.771 -20.587 -13.425 c -6.025 -7.135 -7.154 -16.253 -6.273 -25.292 c 0.869 -8.911 6.755 -16.127 13.862 -20.999 c 3.789 -2.597 7.387 -4.798 11.744 -6.333 c 1.089 -0.384 2.225 -0.889 3.381 -1.393 c 7.101 2.921 14.15 6.012 21.355 8.522 c 6.193 2.157 12.631 3.564 19.221 3.09 c 7.234 -0.521 13.718 -2.305 20.683 -4.14 c 12.505 -3.297 24.703 -9.5 35.297 -16.806 c 9.426 -6.501 18.609 -16.678 21.531 -28.074 c 2.391 -9.328 2.031 -24.99 -8.505 -29.468 c -5.124 -2.179 -10.572 0.135 -14.9 3.071 c -6.012 4.079 -10.645 9.622 -17.199 13.027 c -4.627 2.404 -10.495 5.013 -15.566 6.111 c -6.849 1.481 -15.423 2.16 -22.173 0.258 c -5.749 -1.621 -11.369 -4.033 -15.831 -7.953 c -2.507 -2.202 -4.995 -3.977 -7.219 -6.52 c -2.439 -2.79 -4.354 -6.218 -7.146 -8.663 c -4.128 -3.615 -7.063 -8.194 -11.214 -11.854 c -5.252 -4.632 -10.781 -8.487 -16.698 -12.236 c -10.636 -6.739 -25.547 -9.579 -38.054 -9.184 c -6.317 0.2 -12.82 0.939 -19.079 1.84 c -7.385 1.063 -13.719 2.712 -20.66 5.374 c -12.247 4.696 -23.173 11.198 -33.102 19.855 C 22.999 208.807 7.01 234.071 2.784 261.705 c -1.151 7.53 -2.319 14.828 -2.692 22.468 c -0.416 8.532 0.646 17.329 1.768 25.779 c 1.007 7.585 2.586 15.594 4.728 22.944 c 2.086 7.157 5.405 13.646 8.492 20.391 c 2.957 6.463 6.363 13.554 10.954 19.013 c 4.855 5.772 8.633 12.354 13.367 18.228 c 4.858 6.028 10.547 12.076 16.319 17.231 c 4.207 3.756 8.388 7.29 14.042 7.657 c -0.466 1.3 -0.8 2.649 -1.032 4.067 c -0.038 0.234 -0.343 1.767 -0.583 2.998 c -0.862 -0.033 -2.017 0.212 -2.645 0.269 c -13.636 1.259 -26.649 4.131 -38.101 12.177 c -7.131 5.01 -13.255 16.185 -3.278 21.899 c 4.003 2.293 9.159 2.917 13.643 3.616 c 7.014 1.093 14.113 1.289 21.141 2.189 c 6.775 0.868 13.87 0.721 20.713 0.997 c 7.672 0.309 15.395 0.093 23.073 0.122 c 15.43 0.055 30.935 -0.715 46.345 -1.563 c 15.332 -0.844 31.323 -0.8 46.647 0.168 c 8.111 0.513 16.195 0.614 24.286 1.479 c 7.297 0.779 14.612 0.614 21.872 1.385 c 7.311 0.776 14.824 1.096 22.164 1.493 c 7.353 0.397 14.56 0.904 21.931 0.916 c 7.865 0.012 15.721 -0.495 23.579 -0.703 c 7.647 -0.203 15.357 -0.374 22.974 -1.041 c 7.077 -0.62 14.386 -0.352 21.507 -0.688 c 7.902 -0.372 15.909 -0.251 23.816 -0.054 c 15.215 0.379 30.391 0.327 45.587 0.923 c 6.905 0.27 14.112 -0.737 20.921 0.308 c 6.858 1.052 14.208 0.142 21.144 0.006 c 6.786 -0.133 14.002 0.61 20.715 -0.268 c 2.531 -0.331 5.111 -0.731 7.646 -0.971 c 3.312 -0.312 4.391 -1.438 6.976 -3.383 c 4.567 -3.433 7.455 -6.04 8.968 -11.804 C 511.496 443.366 512.393 436.247 511.831 429.453 z M 296.315 261.687 c 5.171 -10.346 9.253 -21.014 15.699 -30.724 c 5.958 -8.975 11.093 -18.457 17.28 -27.299 c 6.695 -9.567 14.895 -17.81 21.981 -27.038 c 6.392 -8.323 14.417 -15.822 22.282 -22.863 c 8.799 -7.877 18.6 -13.932 28.182 -20.741 c 8.324 -5.915 16.797 -12.011 25.759 -16.93 c 4.265 -2.341 8.671 -4.641 12.997 -6.835 c 2.331 -1.182 4.91 -1.851 7.262 -3.024 c 1.245 -0.62 2.428 -1.357 3.668 -1.99 c 0.486 -0.28 0.991 -0.522 1.507 -0.745 c -0.062 0.173 0.206 0.421 0.818 0.746 c 2.821 2.891 3.69 6.939 5.426 10.433 c 1.156 2.326 2.843 4.355 3.969 6.691 c 1.285 2.663 1.976 5.601 2.861 8.401 c 1.482 4.688 2.892 9.383 4.109 14.124 c -3.184 2.022 -6.456 3.708 -9.534 6.05 c -1.86 1.416 -3.625 2.995 -5.322 4.649 c -1.5 1.236 -2.934 2.506 -4.293 3.732 c -6.257 5.639 -11.996 14.364 -15.362 22.049 c -0.833 1.9 -1.563 3.84 -2.253 5.797 c -0.673 1.063 -1.327 2.139 -1.717 3.266 c -0.672 1.94 -0.737 4.087 -1.403 6.06 c -1.583 4.688 -2.977 9.111 -5.125 13.595 c -2.05 4.28 -3.122 8.822 -5.733 12.884 c -2.399 3.734 -5.82 7.678 -8.996 10.718 c -6.604 6.32 -16.132 11.411 -24.98 13.656 c -5.789 1.469 -10.471 1.056 -14.151 -4.044 c -2.465 -3.415 -5.099 -6.866 -7.475 -10.274 c -3.834 -5.501 -10.373 -9.96 -17.498 -8.071 c -8.693 2.305 -15.378 7.804 -22.658 12.743 c -4.505 3.056 -7.844 6.29 -11.935 9.872 c -4.375 3.828 -7.63 8.355 -11.609 12.578 c -1.661 1.762 -3.34 3.327 -4.957 4.922 C 295.512 263.279 295.918 262.48 296.315 261.687 z M 282.896 291.105 c 0.248 -0.743 0.526 -1.478 0.792 -2.216 c 0.674 -1.143 1.4 -2.268 2.237 -3.356 c 2.819 -3.661 5.411 -7.518 8.296 -11.114 c 6.267 -7.81 12.314 -15.198 19.772 -21.929 c 7.595 -6.853 15.215 -13.697 24.579 -17.982 c 4.95 -2.265 9.637 -4.595 15.232 -4.137 c 0.285 0.024 0.541 0.072 0.806 0.114 c 3.619 2.23 6.311 6.51 8.733 10.551 c 0.275 0.689 0.564 1.373 0.885 2.038 c 1.026 2.129 2.516 4.016 4.303 5.579 c 10.83 11.405 30.388 0.349 40.738 -6.933 c 14.003 -9.851 20.464 -26.826 25.5 -42.43 c 3.354 -10.393 8.245 -19.563 14.372 -28.63 c 3.281 -4.856 7.602 -9.11 11.906 -13.065 c 3.106 -2.854 6.462 -4.714 9.887 -6.703 c 0.254 -0.073 0.505 -0.159 0.762 -0.225 c 0.582 2.851 1.074 5.725 1.417 8.636 c 1.312 11.134 3.41 22.125 3.234 33.401 c -0.131 8.406 0.156 16.859 0.162 25.283 c -1.738 0.6 -4.087 1.344 -4.866 1.795 c -4.076 2.367 -7.186 5.057 -9.989 8.854 c -1.417 1.92 -2.738 3.791 -3.948 5.683 c -0.001 0.002 -0.002 0.004 -0.003 0.006 c -1.905 2.98 -3.493 6.027 -4.581 9.419 c -1.623 4.519 -2.666 9.274 -3.303 13.874 c -0.677 4.891 -0.868 10.503 -1.698 15.901 c -0.564 1.783 -1.247 3.521 -2.098 5.197 c -2.611 5.146 -5.645 8.521 -10.204 11.983 c -4.685 3.557 -9.531 4.331 -14.903 6.283 c -19.92 7.236 -36.95 -11.314 -54.021 -18.137 c -4.351 -1.739 -9.338 -3.428 -14.008 -3.966 c -4.569 -0.527 -9.093 1.452 -13.571 1.966 c -8.971 1.03 -17.557 6.369 -26.079 9.442 c -4.731 1.705 -8.693 4.804 -13.245 6.919 c -4.814 2.235 -9.22 5.044 -13.402 8.337 c -4.608 3.628 -8.296 8.338 -12.073 12.793 c -0.111 0.131 -0.224 0.26 -0.335 0.392 C 276.954 306.813 280.243 299.044 282.896 291.105 z M 270.388 327.097 c 6.776 -6.237 11.915 -14.186 19.007 -20.072 c 4.042 -3.354 8.629 -6.093 13.386 -8.243 c 4.454 -2.014 8.378 -5.012 12.997 -6.602 c 8.997 -3.098 17.372 -7.235 26.663 -9.168 c 5.542 -1.153 10.17 -1.712 15.721 -0.08 c 5.225 1.537 9.71 3.884 14.486 6.418 c 3.933 2.088 7.344 5.037 11.187 7.19 c 1.053 0.591 2.16 1.141 3.295 1.662 c 0.64 0.431 1.286 0.852 1.947 1.247 c 5.8 3.463 12.804 5.222 19.69 5.522 c 4.431 0.577 8.895 0.374 13.363 -1.153 c 3.24 -0.662 6.336 -1.595 9.324 -2.88 c 1.604 -0.572 3.153 -1.25 4.564 -2.167 c 0.625 -0.406 1.263 -0.85 1.903 -1.308 c 0.611 -0.398 1.221 -0.809 1.825 -1.247 c 4.546 -3.294 7.364 -6.788 9.357 -11.134 c 1.247 -2.212 2.347 -4.527 3.233 -6.743 c 1.002 -2.506 1.122 -5.098 1.732 -7.705 c 0.557 -2.383 1.627 -4.677 1.942 -7.113 c 0.695 -5.377 0.82 -10.919 1.988 -16.261 c 1.112 -5.09 3.972 -8.717 7.028 -12.782 c 3.079 -4.095 6.028 -8.065 10.931 -10.189 c 0.161 -0.07 0.325 -0.134 0.492 -0.195 c -0.021 1.066 -0.043 2.13 -0.081 3.195 c -0.379 10.609 -2.239 21.825 -4.469 32.177 c -5.43 25.221 -12.04 50.295 -20.571 74.685 c -4.463 12.759 -8.87 25.301 -15.692 37.049 c -5.109 8.798 -9.765 18.083 -14.145 27.319 c -0.476 -0.226 -0.962 -0.443 -1.469 -0.646 c -13.923 -5.57 -31.134 1.036 -41.398 11.196 c -1.058 1.048 -4.378 5.678 -5.899 5.351 c -0.603 -0.131 -2.457 -4.207 -2.956 -4.886 c -1.061 -1.444 -2.298 -2.758 -3.644 -3.94 c -1.108 -0.972 -2.252 -1.839 -3.415 -2.65 c 1.464 -6.341 4.067 -12.65 5.722 -18.87 c 2.203 -8.281 4.525 -16.495 6.635 -24.812 c 2.164 -8.529 4.254 -17.146 4.812 -25.957 c 0.42 -6.632 0.656 -14.685 -3.321 -20.403 c -3.503 -5.037 -9.381 -5.546 -13.952 -1.53 c -5.581 4.902 -10.267 11.609 -14.493 17.676 c -8.828 12.67 -16.822 25.404 -22.714 39.693 c -3.659 8.875 -7.377 17.808 -9.646 27.156 c -0.39 1.608 -1.592 5.18 -1.757 8.188 c -2.992 1.624 -5.95 3.477 -8.377 5.735 c -1.078 -1.506 -2.065 -3.131 -3.148 -4.412 c -2.16 -2.558 -4.578 -4.944 -6.916 -7.336 c -4.656 -4.762 -11.143 -9.247 -17.455 -11.274 c -2.651 -0.851 -4.994 -1.964 -7.786 -2.256 c -3.468 -0.363 -6.817 -1.129 -10.252 -1.545 c -1.488 -0.18 -3.043 -0.285 -4.627 -0.335 c 0.697 -2.787 1.646 -5.549 2.302 -8.355 c 1.4 -5.98 2.185 -12.08 3.722 -18.04 C 263.997 346.422 267.568 336.861 270.388 327.097 z M 342.782 384.309 c 1.299 -5.201 3.266 -10.462 5.287 -15.424 c 3.582 -8.795 7.207 -17.558 11.175 -26.244 c 2.715 -5.946 6.062 -11.17 8.663 -17.196 c 1.045 -2.419 2.331 -4.905 3.28 -7.435 c 0.036 0.051 0.072 0.097 0.109 0.151 c 2.061 3.083 1.864 8.015 1.871 11.539 c 0.022 9.417 -2.378 18.681 -4.669 27.75 c -2.102 8.32 -4.418 16.535 -6.617 24.817 c -1.102 4.154 -2.372 8.225 -3.581 12.346 c -0.486 1.655 -1.092 3.283 -1.631 4.922 c -3.164 -1.383 -6.538 -2.307 -10.18 -2.787 c -2.148 -0.284 -4.342 -0.411 -6.548 -0.386 C 340.379 392.307 341.842 388.079 342.782 384.309 z M 337.211 385.868 c -1.066 3.391 -2.606 7.197 -2.917 10.897 c -4.891 0.636 -9.696 2.019 -14.043 4.149 c -0.072 0.036 -0.15 0.073 -0.222 0.109 c 0.353 -1.159 0.594 -2.106 0.63 -2.225 c 1.376 -4.577 2.679 -9.091 4.519 -13.504 c 3.172 -7.61 5.703 -15.562 9.746 -22.777 c 1.593 -2.845 2.613 -5.874 4.362 -8.613 c 2.612 -4.091 5.154 -8.231 7.767 -12.321 c 4.428 -6.93 9.72 -13.644 15.459 -19.511 c 1.348 -1.379 2.959 -3.852 4.651 -4.991 c -0.35 0.76 -0.655 1.562 -0.957 2.377 c -2.666 5.322 -5.968 10.425 -8.181 15.919 c -2.773 6.881 -6.051 13.638 -8.993 20.471 c -0.726 1.687 -1.372 3.399 -1.99 5.12 c -1.352 2.891 -2.672 5.79 -3.935 8.683 C 340.795 374.949 338.937 380.373 337.211 385.868 z M 170.506 195.237 c 1.239 1.551 2.479 3.124 3.821 4.706 c 1.777 2.098 3.715 3.681 5.226 6.041 c 1.57 2.452 3.306 4.776 5.152 7.029 c 3.431 4.189 8.196 8.868 13.082 11.279 c 4.956 2.448 10.148 4.92 15.555 6.146 c 6.302 1.429 12.589 0.784 18.994 0.243 c 5.699 -0.482 10.296 -2.422 15.539 -4.499 c 6.117 -2.424 11.56 -5.081 16.8 -9.119 c 4.384 -3.378 7.852 -8.485 12.603 -11.311 c 2.263 -1.347 3.697 -1.943 5.408 0.673 c 0.917 1.4 1.955 3.359 2.418 4.944 c 0.915 3.126 0.203 6.29 -0.169 9.372 c -0.357 2.954 -0.279 5.244 -1.569 8.017 c -1.284 2.76 -2.934 5.555 -4.685 8.048 c -3.708 5.281 -8.536 9.265 -13.825 12.868 c -10.622 7.237 -22.634 11.671 -35.27 13.903 c -6.959 1.229 -13.837 2.453 -20.952 1.473 c -7.14 -0.984 -13.815 -3.88 -20.408 -6.643 c -13.509 -5.661 -27.268 -11.409 -41.866 -13.425 c -14.268 -1.97 -28.335 -0.798 -41.746 4.486 c -7.45 2.935 -13.55 6.839 -19.11 11.619 c 0.01 0.122 -0.008 0.244 -0.007 0.366 c -0.743 0.518 -1.437 1.048 -2.079 1.559 c -0.017 -0.109 -0.037 -0.21 -0.053 -0.327 c -0.222 -1.646 0.084 -3.707 0.257 -5.412 c 0.164 -1.623 0.554 -3.383 1.114 -5.118 c 0.797 -0.971 1.694 -1.864 2.668 -2.654 c 5.193 -4.214 11.082 -7.372 16.79 -10.784 c 4.039 -1.64 9.468 -4.194 8.877 -8.986 c 0.481 -1.758 0.259 -3.583 -1.169 -5.245 c -3.691 -4.299 -11.257 -2.162 -16.106 -3.175 c -4.482 -0.936 -8.871 -3.736 -6.338 -9.012 c 1.959 -4.079 6.775 -5.735 10.758 -6.93 c 8.508 -2.552 17.407 -2.981 26.294 -2.505 c 2.86 0.153 6.283 1 9.471 0.964 c 4.094 0.36 8.544 0.028 9.679 -3.455 c 0.818 -2.508 -0.746 -4.357 -3.044 -5.742 c -0.996 -1.095 -2.314 -2.089 -3.63 -2.921 c -3.336 -2.109 -6.604 -3.7 -10.109 -5.46 c -6.773 -3.401 1.421 -6.874 5.713 -7.32 c 0.171 -0.018 0.343 -0.018 0.515 -0.033 c 0.691 -0.029 1.346 -0.027 1.924 0.008 c 10.808 0.653 21.205 5.327 29.051 12.635 C 167.518 192.881 169 194.083 170.506 195.237 z M 58.894 400.187 c -4.704 -5.263 -9.841 -10.237 -13.961 -15.998 c -3.557 -4.974 -6.438 -10.432 -10.162 -15.29 c -3.848 -5.02 -6.957 -10.224 -9.879 -15.876 C 12.766 329.579 8.58 302.97 10.148 276.786 c 0.803 -13.409 3.655 -27.942 9.872 -39.972 c 2.817 -5.451 5.32 -11.014 8.719 -16.14 c 3.832 -5.776 8.286 -11.104 12.745 -16.399 c 8.078 -9.595 18.334 -18.034 29.573 -23.716 c 11.953 -6.042 24.148 -8.76 37.463 -9.623 c 9.693 -0.628 20.107 -0.641 29.74 1.902 c -6.258 -0.411 -12.777 0.806 -16.492 5.726 c -4.427 5.862 -1.108 10.413 4.57 13.199 c 1.336 0.746 2.729 1.391 4.145 1.991 c 2.988 1.464 6.696 3.352 7.099 3.83 c -0.673 -0.414 -7.042 -0.512 -8.231 -0.63 c -9.858 -0.975 -20.472 -0.551 -29.959 2.289 c -7.039 2.108 -15.774 6.13 -17.172 14.398 c -1.433 8.468 7.189 12.778 13.972 13.922 c 1.888 0.318 4.155 0.886 6.105 0.831 c 1.761 -0.05 3.532 -1.325 3.673 0.85 c 0.2 3.08 -10.719 8.294 -13.104 9.728 c -7.002 4.21 -14.904 9.257 -16.831 17.803 c -0.765 3.393 -1.317 9.654 1.819 11.513 c -0.277 0.332 -0.541 0.667 -0.785 1.003 c -0.206 0.285 -0.396 0.573 -0.575 0.863 c -0.056 0 -0.111 0.012 -0.168 0.01 c -0.721 0.798 -1.44 1.598 -2.16 2.432 c -0.18 0.209 -0.303 0.424 -0.385 0.64 c -1.802 1.941 -3.399 4.079 -4.695 6.367 c -5.052 8.917 -6.885 19.66 -7.164 29.718 c -0.145 5.26 -0.958 10.283 -0.423 15.583 c 0.493 4.874 1.065 9.626 1.82 14.493 c 0.802 5.175 1.95 9.96 4.272 14.682 c 2.02 4.108 6.432 8.036 7.757 12.316 c 0.254 0.823 1.584 0.709 1.548 -0.209 c -0.115 -2.946 -2.068 -5.53 -3.11 -8.24 c -1.811 -4.707 -3.445 -9.68 -4.453 -14.624 c -1.954 -9.59 -3.634 -20.165 -2.53 -29.948 c 0.535 -4.729 0.32 -9.358 1.278 -14.056 c 0.969 -4.742 2.284 -9.353 4.074 -13.854 c 2.179 -5.483 5.761 -9.133 9.891 -13.169 c 1.296 -1.267 2.42 -2.649 3.491 -4.073 c 2.129 -1.585 4.295 -3.121 6.546 -4.539 c 5.98 -3.768 12.635 -5.999 19.385 -7.973 c 10.263 -3.001 21.267 -2.639 31.843 -0.71 c -1.121 0.115 -2.247 0.205 -3.387 0.165 c -3.251 -0.114 -6.114 -0.591 -9.409 -0.185 c -7.245 0.892 -14.079 2.386 -20.514 6.061 c -6.434 3.675 -11.832 6.986 -16.913 12.463 c -2.282 2.461 -4.699 4.815 -6.593 7.598 c -2.25 3.305 -3.763 7.003 -5.649 10.51 c -0.236 0.44 0.342 0.926 0.708 0.546 c 4.59 -4.765 8.015 -10.37 12.677 -15.109 c 3.007 -3.056 5.865 -6.155 9.646 -8.275 c 2.672 -1.499 5.541 -2.691 8.317 -3.98 c 6.526 -3.029 14.083 -4.497 21.245 -4.787 c 0.613 -0.025 1.219 0.002 1.821 0.047 c -8.397 3.05 -16.288 6.478 -23.345 12.503 c -7.269 6.205 -14.448 14.044 -17.266 23.312 c -1.642 5.401 -2.951 10.429 -3.207 16.117 c -0.134 2.98 -0.421 8.387 1.716 10.869 c 0.269 0.313 0.757 -0.088 0.56 -0.432 c -1.511 -2.642 0.704 -10.142 1.256 -12.638 c 1.048 -4.743 2.208 -9.355 4.183 -13.822 c 3.644 -8.24 10.886 -15.669 17.994 -21.109 c 7.882 -6.032 17.049 -9.014 26.326 -12.194 c 2.522 -0.864 5.037 -1.428 7.552 -1.82 c -1.852 0.805 -3.612 1.748 -5.182 2.647 c -6.978 4.001 -12.933 8.931 -18.681 14.474 c -5.091 4.91 -8.618 11.687 -11.274 18.186 c -1.564 3.83 -2.887 7.749 -4.048 11.718 c -0.533 1.822 -1.258 3.737 -1.532 5.619 c -0.221 1.517 0.248 3.328 -0.54 4.723 c -0.692 1.225 1.132 2.281 1.88 1.099 c 1.462 -2.307 0.999 -5.199 1.792 -7.818 c 0.935 -3.09 1.932 -6.16 3.074 -9.181 c 2.705 -7.157 6.274 -14.659 11.768 -20.109 c 5.11 -5.07 11.152 -8.831 17.25 -12.553 c 2.586 -1.579 5.231 -3.15 8.095 -4.189 c -3.742 2.26 -7.202 4.991 -10.223 8.124 c -10.355 10.741 -10.734 29.503 -5.048 42.445 c 6.11 13.91 19.875 22.779 34.498 25.047 c 15.83 2.454 30.757 -5.295 43.114 -14.576 c 7.663 -5.755 16.476 -9.786 25.617 -12.704 c 4.394 -1.402 8.855 -3.817 13.41 -4.527 c 4.027 -0.627 7.987 0.149 11.977 0.384 c -0.406 1.027 -0.808 2.056 -1.194 3.087 c -2.351 6.277 -4.145 12.944 -5.982 19.394 c -0.622 2.183 -1.289 4.362 -1.961 6.542 c -3.265 -0.415 -6.534 0.095 -9.811 0.49 c -3.271 0.395 -6.951 0.538 -10.12 1.471 c -6.381 1.878 -12.784 4.768 -18.277 8.529 c -6.089 4.168 -12.09 9.174 -16.706 14.954 c -1.85 2.316 -5.632 6.778 -6.827 10.815 c -3.643 -1.371 -7.41 -2.461 -11.059 -3.409 c -13.881 -3.602 -28.052 -3.46 -41.736 0.959 c -5.19 1.677 -10.654 4.312 -14.787 7.909 c -2.071 1.801 -4.208 3.939 -5.701 6.248 c -1.669 2.58 -2.472 5.627 -4.144 8.195 c -2.397 3.683 -5.117 2.287 -8.723 1.685 c -2.851 -0.476 -5.785 -0.756 -8.669 -0.616 c -5.362 0.26 -11.436 1.336 -16.232 3.816 c -4.867 2.517 -9.648 6.523 -12.833 11.043 c -0.176 -0.077 -0.365 -0.14 -0.582 -0.174 C 66.074 409.716 62.475 404.194 58.894 400.187 z M 501.503 446.36 c -0.446 1.996 -0.837 4.218 -2.252 5.797 c -0.909 1.015 -2.23 1.535 -3.303 2.338 c -0.744 0.557 -2.347 2.335 -2.619 2.463 c -1.76 0.829 -4.307 0.683 -6.166 0.923 c -3.051 0.395 -5.748 0.558 -8.854 0.542 c -6.732 -0.035 -13.459 -0.163 -20.19 -0.296 c -5.712 -0.113 -11.312 -0.787 -16.969 -0.939 c -6.708 -0.18 -13.422 0.321 -20.127 -0.156 c -13.743 -0.979 -27.533 -0.557 -41.308 -1.052 c -13.275 -0.477 -26.437 0.441 -39.683 0.38 c -6.439 -0.029 -12.781 0.691 -19.222 0.675 c -7.4 -0.018 -15.122 0.125 -22.499 0.755 c -13.586 1.16 -27.069 0.257 -40.613 -0.926 c -12.557 -1.097 -25.175 -0.634 -37.733 -1.834 c -14.257 -1.363 -28.673 -1.402 -42.987 -1.379 c -27.285 0.045 -54.429 2.074 -81.688 2.122 c -13.07 0.023 -26.154 -0.086 -39.144 -1.29 c -6.605 -0.612 -13.197 -0.932 -19.734 -2.151 c -2.501 -0.466 -8.838 -1.013 -9.421 -4.039 c -0.766 -3.983 7.044 -7.554 9.664 -8.907 c 5.851 -3.019 12.287 -5.635 18.842 -6.626 c 3.525 -0.533 7.273 -0.846 10.829 -1.175 c 2.185 -0.201 4.576 0.252 6.61 -0.781 c 4.847 -2.459 2.902 -8.735 4.109 -12.917 c 1.907 -6.616 9.609 -12.44 16.044 -13.781 c 5.915 -1.232 11.122 -1.906 17.163 -0.774 c 5.022 0.941 9.546 0.943 12.892 -3.489 c 4.041 -5.353 4.973 -11.691 10.932 -15.759 c 11.785 -8.047 27.578 -10.569 41.564 -8.337 c 7.527 1.201 14.851 3.528 21.952 6.256 c 0.054 0.02 0.102 0.046 0.155 0.068 c 0.321 -0.432 0.724 -0.819 1.228 -1.131 c 0.49 -0.304 0.955 -0.632 1.435 -0.946 c -0.008 -0.275 0.017 -0.548 0.063 -0.818 c 2.987 -2.503 5.251 -7.76 7.297 -10.215 c 4.481 -5.375 10.281 -10.163 16.104 -14 c 4.905 -3.233 10.586 -5.66 16.212 -7.21 c 4.983 -1.373 10.323 -1.137 15.474 -1.569 c -0.602 2.053 -1.177 4.111 -1.688 6.178 c -1.693 6.85 -2.604 13.823 -3.83 20.76 c -0.262 1.482 -0.593 2.959 -0.833 4.444 c -0.216 1.338 0.018 2.836 -0.032 4.046 c -4.442 -0.089 -9.241 1.025 -13.098 1.628 c -8.164 1.276 -15.097 3.853 -22.551 7.177 c -6.015 2.682 -12.293 5.06 -17.884 8.628 c -2.088 1.332 -5.533 3.563 -7.327 6.212 c -1.069 0.813 -2.111 1.65 -3.098 2.537 c -4.418 3.969 -8.788 7.335 -10.78 13.054 c -0.574 1.649 1.705 2.83 2.856 1.662 c 3.746 -3.799 8.281 -6.825 12.289 -10.352 c 4.337 -3.818 9.899 -6.912 14.866 -9.837 c 5.667 -3.337 12.623 -6.085 18.982 -7.785 c 6.219 -1.663 12.471 -3.841 18.946 -4.339 c 5.852 -0.45 13.21 -0.577 18.879 0.954 c 2.555 0.691 5.199 0.724 7.758 1.345 c 2.326 0.564 4.48 1.679 6.842 2.43 c 6.07 1.93 11.39 7.677 15.503 12.334 c 3.749 4.245 6.632 10.244 11.075 13.754 c 2.547 2.012 6.146 2.035 7.983 -1.029 c 2.661 -4.437 8.646 -6.851 12.912 -9.493 c 5.637 -3.491 13 -5.389 19.609 -5.224 c 6.818 0.17 12.369 2.395 17.705 6.564 c 3.635 2.839 6.029 9.632 11.312 9.626 c 4.057 -0.004 7.477 -3.89 10.013 -6.591 c 4.571 -4.867 11.012 -8.829 17.469 -10.512 c 6.694 -1.744 13.451 -2.624 19.596 1.474 c 4.934 3.291 5.33 10.893 10.651 13.571 c 3.044 1.532 5.431 0.077 8.4 -0.78 c 3.751 -1.083 7.544 -1.305 11.35 -0.339 c 4.158 1.057 6.903 2.774 7.442 7.023 c 0.065 0.515 0.093 1.722 0.088 2.481 c -0.003 0.427 -0.146 1.062 -0.056 1.472 c 0.137 0.626 -0.107 0.97 -0.2 1.069 c 0.104 -0.083 0.496 -0.35 1.57 -0.779 c -4.742 1.894 -3.015 9.315 2.166 7.857 c 4.962 -1.394 5.281 -7.521 4.955 -11.798 c -0.531 -6.95 -3.368 -11.659 -9.984 -14.265 c -3.762 -1.481 -7.852 -2.315 -11.91 -2.165 c -1.635 0.061 -3.286 0.302 -4.885 0.63 c -1.113 0.228 -4.731 2.005 -5.782 1.784 c 0.779 0.164 -0.826 -2.153 -1.167 -2.729 c -0.648 -1.093 -1.35 -2.164 -2.08 -3.213 c 2.118 -4.407 4.667 -8.645 6.569 -13.093 c 2.046 -4.783 4.636 -9.801 7.289 -14.311 c 2.553 -0.668 5.037 -1.69 7.709 -1.535 c 3.629 0.21 6.704 2.233 9.661 4.151 c 3.348 2.173 6.901 4.371 8.8 8.029 c 2.101 4.049 4.084 9.737 1.882 14.016 c -1.57 3.052 1.024 6.803 4.515 5.873 c 5.205 -1.386 12.562 -1.185 17.446 1.481 c 5.171 2.823 8.199 11.652 9.168 17.052 C 503.732 433.447 502.844 440.345 501.503 446.36 z" style="stroke: none; stroke-width: 1; stroke-dasharray: none; stroke-linecap: butt; stroke-linejoin: miter; stroke-miterlimit: 10; fill: rgb(0,0,0); fill-rule: nonzero; opacity: 1;" transform=" matrix(1 0 0 1 0 0) " stroke-linecap="round" />
  <path d="M 215.48 91.927 c -0.981 2.282 -1.965 4.704 -2.756 7.086 c -0.087 0.196 -0.18 0.393 -0.263 0.587 c -3.93 9.183 -3.824 22.236 1.355 30.932 c 5.453 9.157 14.322 14.954 24.638 17.117 c 9.849 2.065 22.914 3.717 31.914 -1.925 c 3.369 -2.112 5.753 -7.004 7.156 -10.586 c 1.842 -4.705 4.284 -8.814 4.774 -13.939 c 1.013 -10.593 0.849 -21.624 -5.311 -30.691 c -5.275 -7.764 -12.086 -14.799 -21.871 -16.115 c -10.115 -1.359 -20.45 -1.062 -29.093 5.18 C 221.873 82.573 217.515 87.193 215.48 91.927 z M 233.199 83.873 c 4.537 -2.218 8.966 -3.41 14.095 -2.941 c 2.457 0.225 5.342 0.602 7.877 0.273 c 4.312 1.307 8.247 3.648 11.757 6.976 c 5.489 5.202 8.513 13.367 9.142 20.751 c 0.781 9.172 -1.238 17.435 -5.469 25.517 c -1.687 3.222 -3.256 5.94 -6.855 7.183 c -4.798 1.658 -11.332 1.535 -16.258 0.805 c -8.968 -1.328 -17.504 -2.658 -24.078 -9.495 c -7.632 -7.936 -8.162 -17.336 -6.411 -27.704 c 0.784 -4.645 3.516 -8.08 6.203 -11.749 C 225.98 89.702 228.884 85.983 233.199 83.873 z" style="stroke: none; stroke-width: 1; stroke-dasharray: none; stroke-linecap: butt; stroke-linejoin: miter; stroke-miterlimit: 10; fill: rgb(0,0,0); fill-rule: nonzero; opacity: 1;" transform=" matrix(1 0 0 1 0 0) " stroke-linecap="round" />
  <path d="M 236.438 62.706 c 0.286 1.88 1.254 4.083 2.999 5.036 c 0.634 0.347 1.494 0.42 2.122 0 c 2.209 -1.479 1.573 -3.626 1.779 -5.899 c 0.239 -2.633 -0.276 -5.329 -1.048 -7.835 c -1.473 -4.789 -9.178 -2.573 -7.457 2.056 C 235.672 58.312 236.08 60.353 236.438 62.706 z" style="stroke: none; stroke-width: 1; stroke-dasharray: none; stroke-linecap: butt; stroke-linejoin: miter; stroke-miterlimit: 10; fill: rgb(0,0,0); fill-rule: nonzero; opacity: 1;" transform=" matrix(1 0 0 1 0 0) " stroke-linecap="round" />
  <path d="M 257.846 157.496 c -1.025 -2.543 -4.191 -2.562 -5.215 0 c -0.908 2.273 -1.256 5.352 -1.099 7.809 c 0.095 1.491 0.432 2.814 0.423 4.329 c -0.03 5.051 7.906 5.058 7.848 0 c -0.006 -0.518 0.016 -1.041 -0.004 -1.559 c -0.054 -1.409 -0.517 -2.338 -0.84 -3.655 C 258.398 162.13 258.761 159.765 257.846 157.496 z" style="stroke: none; stroke-width: 1; stroke-dasharray: none; stroke-linecap: butt; stroke-linejoin: miter; stroke-miterlimit: 10; fill: rgb(0,0,0); fill-rule: nonzero; opacity: 1;" transform=" matrix(1 0 0 1 0 0) " stroke-linecap="round" />
  <path d="M 192.659 132.926 c 1.469 -0.173 2.896 -0.492 3.935 -0.832 c 0.973 -0.318 1.82 -0.754 2.71 -1.236 c 0.964 -0.522 2.041 -0.743 2.947 -1.385 c 1.474 -1.045 2.301 -3.499 0.629 -4.877 c -1.519 -1.251 -3.406 -1.959 -5.401 -1.502 c -3.512 0.805 -7.153 0.756 -9.648 3.884 C 183.318 132.635 188.182 133.455 192.659 132.926 z" style="stroke: none; stroke-width: 1; stroke-dasharray: none; stroke-linecap: butt; stroke-linejoin: miter; stroke-miterlimit: 10; fill: rgb(0,0,0); fill-rule: nonzero; opacity: 1;" transform=" matrix(1 0 0 1 0 0) " stroke-linecap="round" />
  <path d="M 288.018 110.617 c 1.206 0.655 2.064 0.572 3.372 0.465 c 1.206 -0.099 2.424 0.151 3.678 -0.17 c 1.395 -0.357 2.74 -0.842 4.186 -1.011 c 1.469 -0.171 2.85 -0.01 4.29 -0.5 c 4.044 -1.374 3.715 -8.325 -1.071 -7.915 c -0.154 0.014 -0.309 0.026 -0.464 0.039 c -0.239 0.02 -0.478 0.063 -0.713 0.124 c -2.575 0.481 -5.03 0.745 -7.452 1.902 c -0.072 0.035 -0.738 0.381 -0.984 0.548 c -0.316 0.016 -1.014 0.109 -1.121 0.124 c -1.28 0.171 -1.945 1.061 -3.064 1.391 C 286.483 106.259 285.899 109.467 288.018 110.617 z" style="stroke: none; stroke-width: 1; stroke-dasharray: none; stroke-linecap: butt; stroke-linejoin: miter; stroke-miterlimit: 10; fill: rgb(0,0,0); fill-rule: nonzero; opacity: 1;" transform=" matrix(1 0 0 1 0 0) " stroke-linecap="round" />
  <path d="M 277.178 79.533 c 0.751 -0.754 1.594 -1.416 2.353 -2.162 c 0.368 -0.361 0.704 -0.747 1.036 -1.141 c 0.425 -0.506 0.18 -0.226 0.6 -0.572 c 2.153 -1.774 4.97 -3.896 3.903 -7.128 c -0.94 -2.847 -4.04 -3.44 -6.247 -1.65 c -0.598 0.485 -0.831 1.101 -1.232 1.706 c 0.336 -0.508 -0.447 0.393 -0.482 0.425 c -0.793 0.754 -1.537 1.488 -2.162 2.401 c -1.266 1.852 -2.621 3.747 -2.77 6.047 C 272.01 80.05 275.465 81.254 277.178 79.533 z" style="stroke: none; stroke-width: 1; stroke-dasharray: none; stroke-linecap: butt; stroke-linejoin: miter; stroke-miterlimit: 10; fill: rgb(0,0,0); fill-rule: nonzero; opacity: 1;" transform=" matrix(1 0 0 1 0 0) " stroke-linecap="round" />
  <path d="M 217.419 151.501 c -1.735 2.149 -4.016 4.37 -4.913 6.994 c -1.031 3.013 2.867 6.123 5.543 4.262 c 2.199 -1.528 3.395 -3.997 4.818 -6.215 c 1.107 -1.726 2.47 -3.405 3.213 -5.322 c 0.668 -1.725 -1.022 -3.447 -2.65 -3.48 C 220.844 147.686 218.933 149.624 217.419 151.501 z" style="stroke: none; stroke-width: 1; stroke-dasharray: none; stroke-linecap: butt; stroke-linejoin: miter; stroke-miterlimit: 10; fill: rgb(0,0,0); fill-rule: nonzero; opacity: 1;" transform=" matrix(1 0 0 1 0 0) " stroke-linecap="round" />
  <path d="M 197.386 83.489 c 2.107 0.971 4.246 1.868 6.329 2.892 c 2.026 0.996 3.938 1.915 6.179 1.065 c 1.505 -0.571 2.34 -2.156 1.491 -3.665 c -1.789 -3.184 -5.037 -5.3 -8.322 -6.903 c -0.538 -0.736 -1.335 -1.258 -2.251 -1.452 c -1.906 -0.402 -3.603 0.294 -4.677 1.903 l -0.263 0.394 C 194.698 79.487 195.402 82.574 197.386 83.489 z" style="stroke: none; stroke-width: 1; stroke-dasharray: none; stroke-linecap: butt; stroke-linejoin: miter; stroke-miterlimit: 10; fill: rgb(0,0,0); fill-rule: nonzero; opacity: 1;" transform=" matrix(1 0 0 1 0 0) " stroke-linecap="round" />
  <path d="M 286.813 146.715 c 1.621 0.926 3.6 0.61 4.94 -0.637 c 0.216 -0.2 0.478 -0.576 0.637 -0.825 c 0.883 -1.381 0.711 -3.853 -0.637 -4.94 c -1.033 -0.832 -2.045 -1.386 -3.285 -1.861 c -0.324 -0.124 -0.661 -0.215 -0.981 -0.343 c -0.253 -0.082 -0.259 -0.09 -0.017 -0.025 c -0.14 -0.079 -0.28 -0.155 -0.423 -0.228 c -0.936 -0.524 -1.126 -0.5 -1.921 -0.855 c -0.531 -0.237 -0.662 -0.307 -0.985 -0.456 c -0.246 -0.113 -1.338 -0.773 -0.733 -0.336 c -1.22 -0.879 -3.39 -0.014 -3.641 1.481 C 279.033 142.052 283.549 144.848 286.813 146.715 z" style="stroke: none; stroke-width: 1; stroke-dasharray: none; stroke-linecap: butt; stroke-linejoin: miter; stroke-miterlimit: 10; fill: rgb(0,0,0); fill-rule: nonzero; opacity: 1;" transform=" matrix(1 0 0 1 0 0) " stroke-linecap="round" />
  <path d="M 258.197 68.884 c 2.436 -3.144 3.069 -5.684 4.196 -9.529 c 1.174 -4.002 3.531 -7.644 4.46 -11.707 c 0.617 -2.701 -2.427 -4.262 -4.438 -2.584 c -1.58 1.318 -1.85 3.065 -2.574 4.913 c -0.944 2.412 -2.058 4.723 -2.796 7.218 c -0.717 2.423 -1.034 4.918 -1.46 7.397 c -0.266 1.55 -0.668 2.591 0.312 3.997 C 256.371 69.269 257.572 69.691 258.197 68.884 z" style="stroke: none; stroke-width: 1; stroke-dasharray: none; stroke-linecap: butt; stroke-linejoin: miter; stroke-miterlimit: 10; fill: rgb(0,0,0); fill-rule: nonzero; opacity: 1;" transform=" matrix(1 0 0 1 0 0) " stroke-linecap="round" />
  <path d="M 284.009 93.834 c 2.835 1.384 6.443 -0.806 9.168 -1.841 c 4.464 -1.696 9.197 -4.288 13.975 -4.892 c 3.994 -0.505 4.265 -6.636 0 -6.46 c -4.531 0.188 -9.05 2.412 -13.129 4.282 c -3.512 1.61 -7.487 3.361 -10.391 5.97 C 282.777 91.66 282.956 93.319 284.009 93.834 z" style="stroke: none; stroke-width: 1; stroke-dasharray: none; stroke-linecap: butt; stroke-linejoin: miter; stroke-miterlimit: 10; fill: rgb(0,0,0); fill-rule: nonzero; opacity: 1;" transform=" matrix(1 0 0 1 0 0) " stroke-linecap="round" />
  <path d="M 272.509 153.763 c -0.545 -0.691 -1.955 -0.688 -2.496 0 c -1.93 2.451 -0.33 6.328 0.192 9.132 c 0.851 4.568 2.95 8.497 4.06 12.922 c 1.114 4.441 7.693 2.542 6.807 -1.877 c -0.793 -3.958 -3.354 -7.516 -4.432 -11.458 C 275.718 159.105 274.634 156.46 272.509 153.763 z" style="stroke: none; stroke-width: 1; stroke-dasharray: none; stroke-linecap: butt; stroke-linejoin: miter; stroke-miterlimit: 10; fill: rgb(0,0,0); fill-rule: nonzero; opacity: 1;" transform=" matrix(1 0 0 1 0 0) " stroke-linecap="round" />
  <path d="M 237.566 155.368 c -3.498 2.083 -4.56 7.155 -6.304 10.639 c -0.84 1.676 -1.554 3.439 -2.479 5.069 c -0.851 1.498 -1.951 2.494 -2.421 4.191 c -1.156 4.175 5.327 5.956 6.482 1.787 c 0.116 -0.418 1.534 -2.152 1.997 -3.06 c 0.951 -1.864 1.745 -3.826 2.63 -5.724 c 1.646 -3.534 3.92 -7.711 3.13 -11.667 C 240.337 155.286 238.646 154.726 237.566 155.368 z" style="stroke: none; stroke-width: 1; stroke-dasharray: none; stroke-linecap: butt; stroke-linejoin: miter; stroke-miterlimit: 10; fill: rgb(0,0,0); fill-rule: nonzero; opacity: 1;" transform=" matrix(1 0 0 1 0 0) " stroke-linecap="round" />
  <path d="M 193.718 154.044 c 0.773 -0.908 2.988 -1.431 4.052 -2.19 c 1.757 -1.253 3.649 -2.289 5.407 -3.534 c 2.96 -2.098 5.866 -3.572 8.514 -6.095 c 0.688 -0.655 0.749 -1.984 0 -2.629 c -1.483 -1.276 -2.659 -1.3 -4.442 -0.683 c -2.46 0.85 -4.837 1.896 -6.984 3.348 c -2.162 1.462 -4.472 3.193 -6.752 4.424 c -2.044 1.103 -3.673 1.214 -5.042 3.312 C 186.425 153.13 191.238 156.953 193.718 154.044 z" style="stroke: none; stroke-width: 1; stroke-dasharray: none; stroke-linecap: butt; stroke-linejoin: miter; stroke-miterlimit: 10; fill: rgb(0,0,0); fill-rule: nonzero; opacity: 1;" transform=" matrix(1 0 0 1 0 0) " stroke-linecap="round" />
  <path d="M 187.686 104.765 c 2.548 0.214 4.818 0.903 7.251 1.67 c 1.743 0.55 4.059 1.837 5.937 1.565 c 0.449 -0.065 2.3 -1.029 1.168 -0.395 c 0.656 -0.368 1.013 -0.36 1.639 -0.949 c 0.94 -0.885 0.158 -2.331 -0.966 -2.385 c -1.686 -2.061 -3.724 -3.226 -6.344 -4.43 c -1.94 -0.891 -3.949 -1.595 -6.058 -1.956 c -1.699 -0.291 -3.632 -0.017 -5.056 -1.075 c -3.351 -2.488 -7.003 2.769 -4.324 5.603 C 182.805 104.392 185.114 104.549 187.686 104.765 z" style="stroke: none; stroke-width: 1; stroke-dasharray: none; stroke-linecap: butt; stroke-linejoin: miter; stroke-miterlimit: 10; fill: rgb(0,0,0); fill-rule: nonzero; opacity: 1;" transform=" matrix(1 0 0 1 0 0) " stroke-linecap="round" />
  <path d="M 216.795 67.675 c 1.148 2.987 3.87 8.299 7.893 6.12 c 0.594 -0.322 1.044 -1.241 0.776 -1.909 c -2.692 -6.709 -3.843 -14.007 -7.338 -20.413 c -1.473 -2.7 -5.213 -1.78 -6.132 0.801 c -0.985 2.766 0.78 4.903 1.869 7.34 C 215.026 62.222 215.771 65.012 216.795 67.675 z" style="stroke: none; stroke-width: 1; stroke-dasharray: none; stroke-linecap: butt; stroke-linejoin: miter; stroke-miterlimit: 10; fill: rgb(0,0,0); fill-rule: nonzero; opacity: 1;" transform=" matrix(1 0 0 1 0 0) " stroke-linecap="round" />
  <path d="M 302.433 126.763 c -1.556 -0.461 -3.146 -1.099 -4.686 -1.628 c -1.413 -0.484 -3.666 -1.075 -4.958 -1.803 c -3.691 -2.076 -6.966 3.526 -3.318 5.674 c 2.777 1.636 6.278 2.36 9.298 3.549 c 1.391 0.548 2.678 0.867 4.127 1.213 c 2.011 0.482 3.805 1.494 5.798 2.038 c 4.263 1.164 6.062 -5.394 1.822 -6.61 c -1.086 -0.311 -2.053 -0.758 -3.116 -1.192 C 305.764 127.342 304.103 127.259 302.433 126.763 z" style="stroke: none; stroke-width: 1; stroke-dasharray: none; stroke-linecap: butt; stroke-linejoin: miter; stroke-miterlimit: 10; fill: rgb(0,0,0); fill-rule: nonzero; opacity: 1;" transform=" matrix(1 0 0 1 0 0) " stroke-linecap="round" />
</g>
</svg>